HIERARCHY
ROOT Hips
{
	OFFSET 0.000000 0.000000 0.000000
	CHANNELS 6 Xposition Yposition Zposition Xrotation Yrotation Zrotation
	JOINT LeftUpLeg_virtual
	{
		OFFSET 0.000000 0.000000 0.000000
		CHANNELS 3 Xrotation Yrotation Zrotation
		JOINT LeftUpLeg
		{
			OFFSET 11.394100 -6.187798 -0.413800
			CHANNELS 3 Xrotation Yrotation Zrotation
			JOINT LeftLeg
			{
				OFFSET 0.430247 -32.302673 3.732800
				CHANNELS 3 Xrotation Yrotation Zrotation
				JOINT LeftFoot
				{
					OFFSET -0.430247 -48.264931 -6.423300
					CHANNELS 3 Xrotation Yrotation Zrotation
					JOINT LeftToeBase
					{
						OFFSET 4.230900 -16.068199 23.438400
						CHANNELS 3 Xrotation Yrotation Zrotation
						JOINT LeftToe_End
						{
							OFFSET 4.510700 0.695400 19.974600
							CHANNELS 3 Xrotation Yrotation Zrotation
							End Site
							{
								OFFSET 0 0 0
							}
						}
					}
				}
			}
		}
	}
	JOINT RightUpLeg_virtual
	{
		OFFSET 0.000000 0.000000 0.000000
		CHANNELS 3 Xrotation Yrotation Zrotation
		JOINT RightUpLeg
		{
			OFFSET -11.333700 -6.187798 -0.413800
			CHANNELS 3 Xrotation Yrotation Zrotation
			JOINT RightLeg
			{
				OFFSET -0.430392 -32.302628 3.733000
				CHANNELS 3 Xrotation Yrotation Zrotation
				JOINT RightFoot
				{
					OFFSET 0.430392 -48.264973 -6.423500
					CHANNELS 3 Xrotation Yrotation Zrotation
					JOINT RightToeBase
					{
						OFFSET -4.230900 -16.068199 23.438400
						CHANNELS 3 Xrotation Yrotation Zrotation
						JOINT RightToe_End
						{
							OFFSET -4.510700 0.695400 19.974600
							CHANNELS 3 Xrotation Yrotation Zrotation
							End Site
							{
								OFFSET 0 0 0
							}
						}
					}
				}
			}
		}
	}
	JOINT Spine_virtual
	{
		OFFSET 0.000000 0.000000 0.000000
		CHANNELS 3 Xrotation Yrotation Zrotation
		JOINT Spine
		{
			OFFSET -0.002400 12.777504 0.315300
			CHANNELS 3 Xrotation Yrotation Zrotation
			JOINT Spine1
			{
				OFFSET -0.002067 5.816869 0.032633
				CHANNELS 3 Xrotation Yrotation Zrotation
				JOINT Spine1_split
				{
					OFFSET -0.002067 5.816869 0.032633
					CHANNELS 3 Xrotation Yrotation Zrotation
					JOINT Spine2
					{
						OFFSET -0.002067 5.816869 0.032633
						CHANNELS 3 Xrotation Yrotation Zrotation
						JOINT Neck_virtual
						{
							OFFSET 0.000000 0.000000 0.000000
							CHANNELS 3 Xrotation Yrotation Zrotation
							JOINT Neck
							{
								OFFSET -0.003700 21.199493 -0.826900
								CHANNELS 3 Xrotation Yrotation Zrotation
								JOINT Head
								{
									OFFSET 0.000000 20.442200 4.834800
									CHANNELS 3 Xrotation Yrotation Zrotation
									JOINT HeadTop_End
									{
										OFFSET 0.000000 34.668396 4.968400
										CHANNELS 3 Xrotation Yrotation Zrotation
										End Site
										{
											OFFSET 0 0 0
										}
									}
								}
							}
						}
						JOINT LeftShoulder_virtual
						{
							OFFSET 0.000000 0.000000 0.000000
							CHANNELS 3 Xrotation Yrotation Zrotation
							JOINT LeftShoulder
							{
								OFFSET 3.288150 8.794197 -1.372250
								CHANNELS 3 Xrotation Yrotation Zrotation
								JOINT LeftShoulder_split
								{
									OFFSET 3.288150 8.794197 -1.372250
									CHANNELS 3 Xrotation Yrotation Zrotation
									JOINT LeftArm
									{
										OFFSET 11.953299 -2.279007 -0.146200
										CHANNELS 3 Xrotation Yrotation Zrotation
										JOINT LeftForeArm
										{
											OFFSET 18.448900 0.000000 0.000000
											CHANNELS 3 Xrotation Yrotation Zrotation
											JOINT LeftHand
											{
												OFFSET 29.527798 0.000000 0.000000
												CHANNELS 3 Xrotation Yrotation Zrotation
												End Site
												{
													OFFSET 0 0 0
												}
											}
										}
									}
								}
							}
						}
						JOINT RightShoulder_virtual
						{
							OFFSET 0.000000 0.000000 0.000000
							CHANNELS 3 Xrotation Yrotation Zrotation
							JOINT RightShoulder
							{
								OFFSET -3.249400 8.794197 -1.372250
								CHANNELS 3 Xrotation Yrotation Zrotation
								JOINT RightShoulder_split
								{
									OFFSET -3.249400 8.794197 -1.372250
									CHANNELS 3 Xrotation Yrotation Zrotation
									JOINT RightArm
									{
										OFFSET -11.953299 -2.279007 -0.146200
										CHANNELS 3 Xrotation Yrotation Zrotation
										JOINT RightForeArm
										{
											OFFSET -18.448900 0.000000 0.000000
											CHANNELS 3 Xrotation Yrotation Zrotation
											JOINT RightHand
											{
												OFFSET -29.527802 0.000000 0.000000
												CHANNELS 3 Xrotation Yrotation Zrotation
												End Site
												{
													OFFSET 0 0 0
												}
											}
										}
									}
								}
							}
						}
					}
				}
			}
		}
	}
}
MOTION
Frames: 10
Frame Time: 0.03333333
1.043236 142.770279 16.415863 0.000000 0.000000 0.000000 5.817046 -39.763271 4.318790 -89.803286 -14.416245 16.970206 78.114107 1.454800 1.884653 6.968977 2.843779 -0.715484 -9.815874 1.035972 0.852147 0.000000 0.000000 0.000000 5.631021 -39.587459 3.610195 -138.019736 -27.763406 -12.180754 108.813267 8.823715 -11.158875 44.499830 5.219644 19.619807 8.859233 2.430326 -3.777265 0.000000 0.000000 0.000000 4.456117 -38.846984 2.134485 30.786634 -5.284269 -7.770367 12.108192 1.143385 -3.306425 0.457379 -0.471709 1.302550 0.000000 0.000000 0.000000 11.958729 1.327885 -2.444293 -7.456398 19.067793 -13.223528 -25.494827 12.055314 3.849745 0.000000 0.000000 0.000000 13.405484 1.511542 -2.860162 12.069412 -9.865127 -0.537886 0.253186 -2.306076 -5.310078 -53.650350 3.596986 2.654847 47.185693 -18.434681 30.828042 0.000000 0.000000 0.000000 13.880968 1.566428 -2.631499 17.581001 21.561328 -5.176069 1.633258 6.433209 3.061601 -34.871807 -16.097040 0.847897 -50.280721 47.750693 40.268313 0.000000 0.000000 0.000000 
1.039062 142.802460 16.432375 0.000000 0.000000 0.000000 5.807164 -39.583207 4.295013 -89.897311 -14.365805 17.012007 78.100474 1.488058 1.829647 7.141487 2.873719 -0.682955 -9.818048 1.043710 0.811798 0.000000 0.000000 0.000000 5.627156 -39.505370 3.587552 -138.100988 -27.742809 -12.116727 108.810193 8.841220 -11.238535 44.492320 5.310379 19.626007 8.879443 2.436687 -3.794837 0.000000 0.000000 0.000000 4.470068 -38.751642 2.086481 30.710655 -5.349692 -7.772180 12.142697 1.104359 -3.304942 0.451766 -0.477708 1.180974 0.000000 0.000000 0.000000 11.986541 1.312311 -2.446293 -7.576174 19.118616 -13.183342 -25.490872 12.009791 3.936727 0.000000 0.000000 0.000000 13.432598 1.488481 -2.806227 12.252641 -10.188910 0.283808 0.126198 -2.199051 -4.867633 -54.984628 2.814139 3.050816 47.228132 -18.667373 30.959940 0.000000 0.000000 0.000000 13.910593 1.516137 -2.624612 17.675413 21.264938 -5.647852 1.800177 6.507114 2.749634 -35.398777 -16.072041 0.549544 -50.388266 48.105009 40.303809 0.000000 0.000000 0.000000 
1.099143 142.823181 16.406384 0.000000 0.000000 0.000000 5.767830 -39.202482 4.176580 -90.125801 -14.386240 16.941687 78.093924 1.494205 1.819159 7.424627 2.819952 -0.506070 -9.794235 1.043572 0.811060 0.000000 0.000000 0.000000 5.588489 -39.201666 3.460853 -138.303408 -27.719158 -12.032938 108.890653 8.850727 -11.338695 44.645391 5.473615 19.721830 8.777295 2.431422 -3.750050 0.000000 0.000000 0.000000 4.531184 -38.533854 2.020356 30.616159 -5.428529 -7.820653 12.164704 1.067544 -3.322856 0.367775 -0.475064 1.136209 0.000000 0.000000 0.000000 12.047371 1.311912 -2.461334 -7.637991 19.106225 -13.104917 -25.597162 11.909608 4.066278 0.000000 0.000000 0.000000 13.469876 1.488054 -2.757287 12.547109 -10.657008 1.686272 0.329120 -1.797433 -4.704538 -56.563385 1.330120 3.803104 47.327412 -18.975162 31.080141 0.000000 0.000000 0.000000 13.932213 1.475870 -2.638938 17.973491 20.890485 -6.648662 1.943008 6.508935 2.739138 -36.422192 -16.228984 -0.110405 -51.255806 48.889794 41.189398 0.000000 0.000000 0.000000 
1.202137 142.826248 16.374062 0.000000 0.000000 0.000000 5.700562 -38.717569 3.978671 -90.473526 -14.485699 16.771632 78.110166 1.458428 1.860149 7.764537 2.685392 -0.232562 -9.753909 1.035806 0.848490 0.000000 0.000000 0.000000 5.518038 -38.768263 3.252188 -138.609236 -27.699142 -11.961727 109.071796 8.823909 -11.433892 44.888072 5.626239 19.869881 8.642430 2.413044 -3.638365 0.000000 0.000000 0.000000 4.625091 -38.243612 1.938578 30.511698 -5.507322 -7.904216 12.189493 1.039070 -3.350979 0.261207 -0.499971 1.144698 0.000000 0.000000 0.000000 12.155200 1.327216 -2.487698 -7.634888 19.040088 -13.006537 -25.755170 11.767414 4.206979 0.000000 0.000000 0.000000 13.520836 1.504473 -2.727871 12.932434 -11.240111 3.443492 0.675795 -1.356879 -4.845151 -58.049245 -0.571405 4.506523 47.387511 -19.094472 31.068099 0.000000 0.000000 0.000000 13.956961 1.456571 -2.670492 18.418317 20.525637 -8.009569 2.050247 6.474532 2.886528 -37.693236 -16.440498 -0.932489 -52.583017 49.844641 42.610524 0.000000 0.000000 0.000000 
1.321411 142.816544 16.337547 0.000000 0.000000 0.000000 5.620372 -38.200732 3.729132 -90.900344 -14.655342 16.534008 78.160102 1.388744 1.943351 8.111502 2.486870 0.079516 -9.731670 1.025501 0.908720 0.000000 0.000000 0.000000 5.416161 -38.295470 2.999060 -139.021383 -27.668294 -11.931495 109.381054 8.740680 -11.482434 45.155651 5.705167 20.022537 8.632901 2.383119 -3.467316 0.000000 0.000000 0.000000 4.717245 -37.930079 1.833706 30.418446 -5.571278 -8.002340 12.235127 1.019081 -3.383908 0.174361 -0.564187 1.152094 0.000000 0.000000 0.000000 12.298637 1.346529 -2.516877 -7.567638 18.931259 -12.913212 -25.890358 11.602387 4.328028 0.000000 0.000000 0.000000 13.600352 1.523801 -2.721455 13.385167 -11.883176 5.344154 0.993316 -1.083592 -5.114408 -59.268413 -2.753822 4.847810 47.430637 -18.950210 30.980621 0.000000 0.000000 0.000000 13.997594 1.455888 -2.705598 18.938781 20.284241 -9.504180 2.095163 6.425167 3.016349 -39.005380 -16.470639 -1.715365 -53.997252 50.711774 44.160475 0.000000 0.000000 0.000000 
1.431725 142.815323 16.290300 0.000000 0.000000 0.000000 5.536680 -37.730962 3.456771 -91.377952 -14.874035 16.277850 78.268183 1.311519 2.041550 8.463470 2.262338 0.373328 -9.709587 1.019816 0.957755 0.000000 0.000000 0.000000 5.302596 -37.892093 2.734580 -139.510097 -27.622002 -11.950109 109.817967 8.622601 -11.477214 45.440385 5.719962 20.174367 8.751745 2.350558 -3.264355 0.000000 0.000000 0.000000 4.783650 -37.677745 1.703129 30.356485 -5.608581 -8.095174 12.313334 1.002578 -3.415682 0.235898 -0.568850 1.175819 0.000000 0.000000 0.000000 12.448164 1.357050 -2.543744 -7.458682 18.818366 -12.837640 -25.975628 11.431527 4.422050 0.000000 0.000000 0.000000 13.712127 1.531052 -2.740288 13.858779 -12.539286 7.127326 1.150244 -1.096223 -5.453081 -60.171924 -4.901032 4.742203 47.497986 -18.620206 30.897658 0.000000 0.000000 0.000000 14.073900 1.463209 -2.746324 19.486702 20.250027 -10.964200 2.024249 6.355893 3.119064 -40.058110 -16.126135 -2.177024 -55.087245 51.316878 45.375856 0.000000 0.000000 0.000000 
1.508411 142.821548 16.250427 0.000000 0.000000 0.000000 5.445258 -37.403127 3.184777 -91.887751 -15.120526 16.048368 78.439368 1.252437 2.135812 8.837595 2.038439 0.609339 -9.663675 1.023172 0.970451 0.000000 0.000000 0.000000 5.194712 -37.608005 2.476015 -140.027252 -27.570646 -11.994282 110.317261 8.522155 -11.452789 45.738966 5.739406 20.369613 8.858232 2.326004 -3.074997 0.000000 0.000000 0.000000 4.819789 -37.497745 1.551487 30.348969 -5.612613 -8.166144 12.432087 0.989416 -3.440413 0.374415 -0.508218 1.177439 0.000000 0.000000 0.000000 12.562395 1.352723 -2.569152 -7.341863 18.718789 -12.802185 -25.995432 11.269909 4.490254 0.000000 0.000000 0.000000 13.843972 1.518117 -2.781031 14.309005 -13.161215 8.622449 1.290787 -1.261840 -5.551375 -60.968010 -6.826621 4.191048 47.599411 -18.235068 30.876929 0.000000 0.000000 0.000000 14.194136 1.473461 -2.788861 20.003447 20.396835 -12.240574 1.910589 6.270516 3.160708 -40.737004 -15.214164 -2.191783 -55.671359 51.652886 46.023433 0.000000 0.000000 0.000000 
1.537694 142.832550 16.216934 0.000000 0.000000 0.000000 5.359078 -37.250588 2.946945 -92.394298 -15.378343 15.875848 78.668514 1.232650 2.213760 9.220434 1.835261 0.767746 -9.590771 1.038312 0.936580 0.000000 0.000000 0.000000 5.089166 -37.455473 2.246372 -140.520870 -27.543148 -12.035889 110.774501 8.475890 -11.447488 46.022105 5.798845 20.616509 8.854280 2.317223 -2.941437 0.000000 0.000000 0.000000 4.800797 -37.414854 1.379033 30.423777 -5.599469 -8.209052 12.580198 0.970982 -3.459358 0.475692 -0.407418 1.173547 0.000000 0.000000 0.000000 12.623603 1.333525 -2.586369 -7.235526 18.648665 -12.802949 -25.932813 11.182698 4.554471 0.000000 0.000000 0.000000 13.973905 1.487476 -2.826631 14.690241 -13.714668 9.719050 1.315423 -1.453274 -5.419186 -61.709598 -8.439836 3.338440 47.747219 -17.971768 30.969034 0.000000 0.000000 0.000000 14.334416 1.473338 -2.823283 20.429786 20.688440 -13.239707 1.812655 6.219066 3.193564 -41.050677 -13.728207 -1.687524 -55.585541 51.692791 45.906682 0.000000 0.000000 0.000000 
1.525149 142.840225 16.209385 0.000000 0.000000 0.000000 5.271632 -37.273770 2.759999 -92.857091 -15.625036 15.782214 78.948463 1.253636 2.280317 9.577185 1.654607 0.820875 -9.507488 1.061421 0.867781 0.000000 0.000000 0.000000 4.987549 -37.440085 2.057207 -140.917676 -27.572316 -12.067130 111.090192 8.476746 -11.458887 46.249420 5.854212 20.863393 8.788600 2.323966 -2.871365 0.000000 0.000000 0.000000 4.716983 -37.457738 1.193789 30.583337 -5.587306 -8.234395 12.750397 0.945205 -3.478491 0.521545 -0.305518 1.168620 0.000000 0.000000 0.000000 12.650893 1.305074 -2.602014 -7.141988 18.614519 -12.818509 -25.802935 11.151145 4.639893 0.000000 0.000000 0.000000 14.090654 1.444055 -2.871059 14.961951 -14.212493 10.337598 1.203315 -1.653645 -5.229447 -62.299754 -9.615137 2.375871 47.903323 -17.940320 31.131900 0.000000 0.000000 0.000000 14.460579 1.457414 -2.853170 20.731212 21.105483 -13.892165 1.733382 6.145692 3.199047 -41.111014 -11.814223 -0.694264 -54.774012 51.414826 44.966991 0.000000 0.000000 0.000000 
1.486867 142.850861 16.225216 0.000000 0.000000 0.000000 5.177024 -37.461402 2.621500 -93.232212 -15.845778 15.764333 79.265288 1.292351 2.353511 9.861994 1.476577 0.763748 -9.476449 1.083363 0.796031 0.000000 0.000000 0.000000 4.874185 -37.538542 1.907075 -141.169710 -27.671734 -12.092198 111.226414 8.503948 -11.466889 46.376308 5.847850 21.045459 8.754016 2.339101 -2.847448 0.000000 0.000000 0.000000 4.587905 -37.613326 1.015432 30.811772 -5.597635 -8.249636 12.923564 0.911183 -3.499872 0.484528 -0.271850 1.170142 0.000000 0.000000 0.000000 12.678386 1.272030 -2.625567 -7.068320 18.616596 -12.834027 -25.650676 11.084692 4.757310 0.000000 0.000000 0.000000 14.199373 1.392759 -2.917054 15.114059 -14.680698 10.457761 1.061780 -1.831607 -4.988154 -62.666378 -10.451676 1.346362 48.004779 -18.014182 31.245131 0.000000 0.000000 0.000000 14.562786 1.431368 -2.882121 20.884173 21.614875 -14.148584 1.700423 6.079531 3.199421 -41.069542 -9.591182 0.564518 -53.376040 50.821484 43.346030 0.000000 0.000000 0.000000 
